<svg
					width="16"
					height="16"
					viewBox="0 0 16 16"
					fill="none"
					xmlns="http://www.w3.org/2000/svg"
				>
					<path
						d="M8 0L9.05249 1.35483L10.4721 0.391548L11.0544 2.00531L12.7023 1.52786L12.7574 3.24259L14.4721 3.29772L13.9947 4.94555L15.6085 5.52786L14.6452 6.94751L16 8L14.6452 9.05249L15.6085 10.4721L13.9947 11.0544L14.4721 12.7023L12.7574 12.7574L12.7023 14.4721L11.0544 13.9947L10.4721 15.6085L9.05249 14.6452L8 16L6.94751 14.6452L5.52786 15.6085L4.94555 13.9947L3.29772 14.4721L3.24259 12.7574L1.52786 12.7023L2.00531 11.0544L0.391548 10.4721L1.35483 9.05249L0 8L1.35483 6.94751L0.391548 5.52786L2.00531 4.94555L1.52786 3.29772L3.24259 3.24259L3.29772 1.52786L4.94555 2.00531L5.52786 0.391548L6.94751 1.35483L8 0Z"
						fill="#9EFF7C"
					/>
					<path
						d="M5.61601 10.4267C5.55729 10.4267 5.50225 10.4157 5.45088 10.3936C5.3995 10.3716 5.3518 10.3384 5.30776 10.2943L3.44727 8.42934C3.36654 8.34841 3.32617 8.24365 3.32617 8.11505C3.32617 7.98645 3.36654 7.88155 3.44727 7.80033C3.528 7.7194 3.63075 7.67894 3.75552 7.67894C3.88028 7.67894 3.98303 7.7194 4.06376 7.80033L5.62702 9.36734L6.24351 9.98532L5.92426 10.2943C5.88022 10.3384 5.83252 10.3716 5.78114 10.3936C5.72977 10.4157 5.67472 10.4267 5.61601 10.4267ZM8.104 10.4157C8.04529 10.4157 7.99025 10.4066 7.93887 10.3883C7.8875 10.3701 7.83979 10.3387 7.79576 10.2943L5.92426 8.4183C5.84352 8.33738 5.80316 8.23247 5.80316 8.10358C5.80316 7.97468 5.84352 7.86992 5.92426 7.78929C6.00499 7.70836 6.10774 7.6679 6.2325 7.6679C6.35727 7.6679 6.46002 7.70836 6.54075 7.78929L8.104 9.3563L11.847 5.6043C11.9277 5.52337 12.0305 5.48291 12.1553 5.48291C12.28 5.48291 12.3828 5.52337 12.4635 5.6043C12.5442 5.68522 12.5846 5.79013 12.5846 5.91903C12.5846 6.04792 12.5442 6.15268 12.4635 6.23331L8.41225 10.2943C8.36822 10.3384 8.32051 10.3698 8.26914 10.3883C8.21776 10.4069 8.16272 10.416 8.104 10.4157ZM8.104 8.10931L7.4765 7.49134L9.348 5.61533C9.42873 5.53441 9.53339 5.49395 9.66197 5.49395C9.79056 5.49395 9.89507 5.53441 9.97551 5.61533C10.0562 5.69626 10.0966 5.79926 10.0966 5.92432C10.0966 6.04939 10.0562 6.15239 9.97551 6.23331L8.104 8.10931Z"
						fill="#E7E9EB"
					/>
				</svg>