<svg
	width="25"
	height="24"
	viewBox="0 0 24 25"
	fill="none"
	xmlns="http://www.w3.org/2000/svg"
>
	<path
		d="M12.1797 2C17.6937 2 22.1797 6.486 22.1797 12C22.1797 17.514 17.6937 22 12.1797 22C6.66569 22 2.17969 17.514 2.17969 12C2.17969 6.486 6.66569 2 12.1797 2ZM12.1797 0C5.55269 0 0.179688 5.373 0.179688 12C0.179688 18.627 5.55269 24 12.1797 24C18.8067 24 24.1797 18.627 24.1797 12C24.1797 5.373 18.8067 0 12.1797 0ZM10.2207 17L5.72069 12.681L7.11569 11.246L10.1957 14.183L17.2167 7L18.6387 8.409L10.2207 17Z"
		fill="#E7E9EB"
	/>
</svg>